<svg xmlns="http://www.w3.org/2000/svg" width="1440" height="825" viewBox="0 0 1440 825" fill="none">
    <g clip-path="url(#clip0_168_5178)">
        <g opacity="0.7">
            <path
                d="M1979.08 705.61C2002.99 665.916 2000.44 614.538 1982.98 571.616C1965.51 528.694 1934.9 492.584 1903.75 458.28C1862.57 412.925 1818.22 368.321 1762.72 342.402C1685.35 306.28 1595.52 310.576 1511.06 323.024C1361.08 345.132 1215.36 390.429 1073.66 444.305C921.755 502.056 766.863 571.079 604.62 561.846C459.025 553.564 359.704 482.355 254.579 390.584C156.532 304.992 75.4305 194.575 -46.2384 138.577C-205.886 65.0968 -402.394 102.888 -544.45 206.363C-686.506 309.838 -778.988 470.12 -831.861 637.726"
                stroke="#d3d5f9" stroke-width="1.29401" stroke-miterlimit="10" />
            <path
                d="M1992.89 688.037C2014.61 653.765 2008.26 607.88 1987.96 567.617C1967.73 527.47 1935.96 492.299 1903.34 460.02C1860.38 417.525 1814.77 374.648 1757.81 350.386C1676.84 315.894 1583.03 319.11 1495.36 329.947C1345.96 348.406 1201.1 390.998 1060.57 441.536C911.079 495.295 759.228 561.723 599.774 551.487C454.321 542.151 353.078 473.31 246.886 386.346C147.532 305.361 64.9616 202.352 -55.6397 151.18C-213.353 84.2607 -405.739 123.922 -547.323 225.579C-689.495 327.456 -784.326 480.595 -840.383 643.899"
                stroke="#d3d5f9" stroke-width="1.29401" stroke-miterlimit="10" />
            <path
                d="M2006.69 670.467C2026.23 641.617 2016.16 601.341 1992.95 563.627C1970 526.353 1937.04 492.023 1902.91 461.776C1858.21 422.154 1811.27 381.024 1752.89 358.379C1668.26 325.556 1570.59 327.698 1479.67 336.872C1330.93 351.876 1186.88 391.57 1047.48 438.769C900.43 488.562 751.58 552.343 594.928 541.124C449.618 530.714 346.634 464.015 239.187 382.111C138.713 305.518 54.5449 210.144 -65.0406 163.786C-220.755 103.427 -409.084 144.958 -550.196 244.804C-692.491 345.083 -789.671 491.072 -848.91 650.08"
                stroke="#d3d5f9" stroke-width="1.29401" stroke-miterlimit="10" />
            <path
                d="M2020.49 652.893C2037.84 629.465 2024.16 594.908 1997.92 559.627C1972.39 525.297 1938.14 491.75 1902.5 463.521C1856.09 426.772 1807.75 387.427 1747.98 366.361C1659.64 335.234 1558.2 336.321 1463.97 343.787C1315.95 355.511 1172.68 392.138 1034.4 435.991C889.826 481.838 743.94 542.935 590.089 530.758C444.915 519.267 340.094 454.845 231.501 377.865C129.799 305.769 44.1936 217.919 -74.4343 176.382C-228.091 122.57 -412.422 165.991 -553.061 264.012C-695.473 362.686 -795.001 501.533 -857.424 656.238"
                stroke="#d3d5f9" stroke-width="1.29401" stroke-miterlimit="10" />
            <path
                d="M2034.29 635.319C2049.46 617.313 2032.3 588.547 2002.9 555.628C1974.91 524.28 1939.27 491.477 1902.07 465.267C1854 431.39 1804.19 393.864 1743.06 374.35C1650.98 344.957 1545.84 345.002 1448.27 350.709C1301.03 359.321 1158.53 392.725 1021.31 433.215C879.254 475.134 736.292 533.494 585.243 520.385C440.198 507.801 333.526 445.663 223.808 373.619C120.863 306.02 33.8867 225.702 -83.8355 188.971C-235.363 141.695 -415.767 187.011 -555.934 283.214C-698.462 380.303 -800.339 512 -865.945 662.409"
                stroke="#d3d5f9" stroke-width="1.29401" stroke-miterlimit="10" />
            <path
                d="M2048.09 617.747C2061.08 605.169 2040.58 582.227 2007.89 551.636C1977.58 523.278 1940.43 491.206 1901.65 467.015C1851.94 435.998 1800.61 400.335 1738.15 382.335C1642.29 354.715 1533.52 353.731 1432.58 357.626C1286.15 363.281 1144.41 393.315 1008.22 430.44C868.715 468.471 728.639 524.029 580.397 510.021C435.475 496.331 326.953 436.496 216.115 369.382C111.916 306.287 23.6385 233.479 -93.2296 201.576C-242.564 160.808 -418.898 208.356 -558.8 302.437C-701.244 398.226 -805.677 522.47 -874.466 668.576"
                stroke="#d3d5f9" stroke-width="1.29401" stroke-miterlimit="10" />
            <path
                d="M2061.89 600.176C2072.69 593.02 2049 575.907 2012.87 547.639C1980.39 522.238 1941.61 490.923 1901.23 468.763C1849.92 440.599 1797.01 406.839 1733.23 390.327C1633.57 364.525 1521.22 362.519 1416.88 364.557C1271.3 367.397 1130.33 393.938 995.132 427.679C858.213 461.847 720.99 514.552 575.551 499.671C430.752 484.854 320.36 427.342 208.422 365.152C102.954 306.56 13.4542 241.251 -102.631 214.187C-249.701 179.896 -422.211 229.45 -561.673 321.661C-704.201 415.897 -811.015 532.94 -882.987 674.75"
                stroke="#d3d5f9" stroke-width="1.29401" stroke-miterlimit="10" />
            <path
                d="M2075.69 582.602C2084.3 580.868 2057.56 569.546 2017.85 543.646C1983.34 521.137 1942.82 490.637 1900.81 470.516C1847.93 445.186 1793.4 413.379 1728.32 398.317C1624.83 374.371 1508.94 371.363 1401.18 371.479C1256.47 371.634 1116.28 394.571 982.037 424.908C847.738 455.253 713.33 505.04 570.698 489.305C426.022 473.343 313.754 418.18 200.723 360.913C93.98 306.83 3.32207 248.995 -112.039 226.79C-256.767 198.93 -425.537 250.535 -564.552 340.882C-707.171 433.572 -816.366 543.42 -891.521 680.927"
                stroke="#d3d5f9" stroke-width="1.29401" stroke-miterlimit="10" />
            <path
                d="M2089.49 565.029C2095.92 568.717 2066.23 563.108 2022.83 539.647C1986.39 519.953 1944.05 490.32 1900.39 472.256C1845.97 449.733 1789.78 419.932 1723.4 406.294C1616.07 384.244 1496.68 380.252 1385.49 378.388C1241.67 375.982 1102.28 395.217 968.961 422.119C837.322 448.685 705.689 495.483 565.872 478.926C421.312 461.806 307.155 409.011 193.049 356.656C85.0129 307.089 -6.71927 256.687 -121.413 239.367C-263.735 217.88 -428.837 271.588 -567.399 360.072C-710.128 451.222 -821.69 553.881 -900.029 687.086"
                stroke="#d3d5f9" stroke-width="1.29401" stroke-miterlimit="10" />
            <path
                d="M2103.29 547.457C2107.54 556.573 2074.99 556.567 2027.81 535.656C1989.51 518.678 1945.29 489.997 1899.97 474.009C1844.02 454.269 1786.14 426.532 1718.49 414.291C1607.29 394.176 1484.42 389.22 1369.79 385.318C1226.87 380.453 1088.31 395.91 955.866 419.357C826.925 442.183 698.023 485.921 561.02 468.568C416.576 450.271 300.523 399.876 185.35 352.425C76.0135 307.374 -16.7278 264.368 -130.82 251.977C-270.663 236.792 -432.168 292.667 -570.284 379.301C-713.097 468.879 -827.034 564.35 -908.55 693.259"
                stroke="#d3d5f9" stroke-width="1.29401" stroke-miterlimit="10" />
            <path
                d="M2117.1 529.884C2119.16 544.422 2083.8 549.909 2032.8 531.657C1992.69 517.3 1946.56 489.647 1899.56 475.756C1842.1 458.772 1782.51 433.144 1713.58 422.275C1598.51 404.133 1472.18 398.239 1354.1 392.234C1212.08 385.014 1074.4 396.621 942.783 416.581C816.572 435.726 690.374 476.325 556.179 458.203C411.846 438.715 293.891 390.74 177.657 348.18C67.0064 307.665 -26.6796 271.982 -140.222 264.574C-277.523 255.613 -435.495 313.734 -573.157 398.51C-716.074 486.522 -832.373 574.812 -917.078 699.418"
                stroke="#d3d5f9" stroke-width="1.29401" stroke-miterlimit="10" />
            <path
                d="M2130.9 512.311C2130.77 532.271 2092.64 543.134 2037.78 527.665C1995.88 515.844 1947.83 489.278 1899.14 477.503C1840.19 463.249 1778.87 439.782 1708.67 430.265C1589.73 414.135 1459.95 407.329 1338.4 399.163C1197.3 389.678 1060.51 397.384 929.695 413.818C806.247 429.327 682.721 466.71 551.334 447.85C407.111 427.146 287.241 381.63 169.965 343.955C57.9947 307.981 -36.5712 279.559 -149.616 277.19C-284.315 274.37 -438.819 334.813 -576.023 417.739C-719.043 504.185 -837.703 585.293 -925.592 705.603"
                stroke="#d3d5f9" stroke-width="1.29401" stroke-miterlimit="10" />
            <path
                d="M2144.7 494.738C2142.38 520.12 2101.48 536.25 2042.77 523.665C1999.07 514.303 1949.1 488.883 1898.72 479.249C1838.29 467.693 1775.22 446.446 1703.75 438.248C1580.93 424.169 1447.7 416.476 1322.7 406.079C1182.51 394.414 1046.65 398.179 916.612 411.042C795.952 422.972 675.073 457.057 546.494 437.478C402.381 415.532 280.589 372.513 162.278 339.703C48.9749 308.285 -46.4192 287.037 -159.011 289.774C-291.064 292.99 -442.152 355.859 -578.889 436.941C-722.019 521.821 -843.041 595.754 -934.113 711.768"
                stroke="#d3d5f9" stroke-width="1.29401" stroke-miterlimit="10" />
            <path
                d="M2158.5 477.167C2154 507.971 2110.31 529.264 2047.75 519.675C2002.24 512.701 1950.38 488.47 1898.3 481.004C1836.39 472.121 1771.58 453.131 1698.84 446.247C1572.14 434.251 1435.46 425.705 1307.01 413.01C1167.72 399.249 1032.83 399.035 903.523 408.274C785.691 416.698 667.426 447.386 541.648 427.122C397.645 403.914 273.919 363.424 154.586 335.474C39.9431 308.623 -56.2403 294.46 -168.411 302.386C-297.779 311.528 -445.49 376.921 -581.762 456.165C-725.008 539.467 -848.378 606.225 -942.634 717.936"
                stroke="#d3d5f9" stroke-width="1.29401" stroke-miterlimit="10" />
            <path
                d="M2172.3 459.593C2165.62 495.826 2119.11 522.184 2052.73 515.676C2005.39 511.037 1951.66 488.029 1897.88 482.743C1834.49 476.513 1767.93 459.82 1693.93 454.223C1563.34 444.344 1423.21 434.975 1291.32 419.919C1152.92 404.126 1019.05 399.927 890.44 405.491C775.455 410.466 659.784 437.673 536.808 416.742C392.921 392.253 267.254 354.333 146.899 331.215C30.9104 308.945 -66.0366 301.764 -177.8 314.969C-304.463 329.934 -448.823 397.953 -584.622 475.367C-727.978 557.084 -853.71 616.686 -951.143 724.095"
                stroke="#d3d5f9" stroke-width="1.29401" stroke-miterlimit="10" />
            <path
                d="M2186.1 442.02C2177.23 483.674 2127.88 515.027 2057.71 511.682C2008.52 509.334 1952.93 487.575 1897.46 484.495C1832.58 480.891 1764.29 466.541 1689.01 462.213C1554.54 454.487 1410.95 444.323 1275.61 426.841C1138.11 409.081 1005.27 400.896 877.345 402.721C765.226 404.319 652.13 427.947 531.955 406.383C388.179 380.58 260.57 345.267 139.199 326.983C21.865 309.306 -75.8323 309.002 -187.207 327.578C-311.16 348.243 -452.174 419.006 -587.501 494.588C-730.981 574.72 -859.055 627.159 -959.677 730.272"
                stroke="#d3d5f9" stroke-width="1.29401" stroke-miterlimit="10" />
            <path
                d="M2199.9 424.449C2188.85 471.525 2136.61 507.815 2062.69 507.686C2011.61 507.595 1954.21 487.105 1897.04 486.244C1830.67 485.248 1760.65 473.272 1684.1 470.205C1545.76 464.66 1398.68 453.745 1259.92 433.772C1123.28 414.103 991.521 401.946 864.256 399.96C755.022 398.252 644.482 418.205 527.109 396.032C383.455 368.891 253.893 336.23 131.506 322.759C12.8263 309.69 -85.628 316.16 -196.608 340.19C-317.857 366.451 -455.519 440.061 -590.374 513.819C-733.97 592.352 -864.393 637.636 -968.191 736.446"
                stroke="#d3d5f9" stroke-width="1.29401" stroke-miterlimit="10" />
            <path
                d="M2213.7 406.876C2200.46 459.374 2145.3 500.549 2067.67 503.694C2014.66 505.842 1955.47 486.613 1896.62 487.991C1828.75 489.582 1757 480.013 1679.18 478.189C1536.96 474.85 1386.39 463.224 1244.22 440.689C1108.45 419.163 977.785 403.059 851.173 397.178C744.832 392.241 636.854 408.416 522.27 385.654C378.738 357.147 247.222 327.185 123.82 318.502C3.78766 310.059 -95.4368 323.173 -205.997 352.774C-324.56 384.516 -458.858 461.076 -593.234 533.016C-736.959 609.964 -869.724 648.092 -976.706 742.606"
                stroke="#d3d5f9" stroke-width="1.29401" stroke-miterlimit="10" />
            <path
                d="M2227.5 389.303C2212.07 447.229 2153.95 493.244 2072.66 499.694C2017.69 504.055 1956.73 486.101 1896.2 489.737C1826.82 493.903 1753.36 486.774 1674.27 486.178C1528.18 485.078 1374.08 472.779 1228.52 447.61C1093.59 424.28 964.044 404.261 838.079 394.407C734.636 386.313 629.214 398.606 517.425 375.295C374.016 345.384 240.546 318.165 116.121 314.27C-5.25663 310.465 -105.296 330.121 -215.403 365.383C-331.327 402.508 -462.222 482.115 -596.112 552.237C-739.967 627.581 -875.068 658.572 -985.239 748.784"
                stroke="#d3d5f9" stroke-width="1.29401" stroke-miterlimit="10" />
            <path
                d="M2241.31 371.731C2223.7 435.079 2162.57 485.914 2077.65 495.703C2020.7 502.27 1957.98 485.591 1895.79 491.491C1824.89 498.22 1749.74 493.549 1669.36 494.17C1519.41 495.334 1361.76 482.401 1212.84 454.534C1078.74 429.444 950.327 405.563 825.002 391.639C724.452 380.472 621.598 388.78 512.591 364.931C369.318 333.59 233.888 309.159 108.44 310.026C-14.283 310.874 -115.19 336.961 -224.792 377.981C-338.121 420.398 -465.567 503.137 -598.973 571.454C-742.957 645.187 -880.4 669.042 -993.748 754.957"
                stroke="#d3d5f9" stroke-width="1.29401" stroke-miterlimit="10" />
            <path
                d="M2255.11 354.157C2235.31 422.927 2171.14 478.557 2082.63 491.704C2023.67 500.464 1959.22 485.053 1895.37 493.237C1822.94 502.515 1746.1 500.322 1664.44 502.159C1510.64 505.608 1349.4 492.085 1197.13 461.456C1063.84 434.645 936.572 406.953 811.908 388.869C714.243 374.7 613.964 378.918 507.739 354.572C364.609 321.762 227.211 300.172 100.742 305.794C-23.3211 311.306 -125.159 343.721 -234.192 390.584C-344.991 438.21 -468.925 524.157 -601.851 590.669C-745.971 662.791 -885.743 679.509 -1002.28 761.122"
                stroke="#d3d5f9" stroke-width="1.29401" stroke-miterlimit="10" />
            <path
                d="M2268.91 336.586C2246.93 410.778 2179.68 471.189 2087.61 487.713C2026.61 498.661 1960.45 484.524 1894.94 494.986C1820.98 506.806 1742.48 507.11 1659.53 510.145C1501.87 515.903 1337.03 501.837 1181.44 468.381C1048.94 439.887 922.796 408.449 798.824 386.102C704.025 369.008 606.354 369.04 502.898 344.215C359.924 309.904 220.559 291.193 93.0544 301.558C-32.3412 311.754 -135.195 350.4 -243.588 403.189C-351.928 455.958 -472.284 545.174 -604.719 609.893C-748.974 680.391 -891.076 689.986 -1010.8 767.303"
                stroke="#d3d5f9" stroke-width="1.29401" stroke-miterlimit="10" />
            <path
                d="M2282.71 319.012C2258.54 398.626 2188.2 463.805 2092.59 483.713C2029.53 496.847 1961.67 483.972 1894.52 496.731C1819.01 511.081 1738.86 513.909 1654.62 518.127C1493.12 526.221 1324.62 511.657 1165.74 475.296C1034.01 445.152 908.99 410.045 785.736 383.318C693.778 363.377 598.746 359.12 498.053 333.835C355.24 297.978 213.902 282.211 85.3623 297.305C-41.3597 312.186 -145.32 356.991 -252.981 415.778C-358.941 473.633 -475.641 566.167 -607.584 629.095C-751.982 697.962 -896.412 700.446 -1019.31 773.46"
                stroke="#d3d5f9" stroke-width="1.29401" stroke-miterlimit="10" />
            <path
                d="M2296.51 301.441C2270.15 386.483 2196.69 456.418 2097.57 479.723C2032.42 495.037 1962.88 483.423 1894.1 498.486C1817.02 515.366 1735.23 520.723 1649.69 526.126C1484.36 536.568 1312.19 521.551 1150.04 482.226C1019.05 450.459 895.125 411.774 772.641 380.556C683.484 357.834 591.144 349.196 493.2 323.484C350.569 286.036 207.251 273.258 77.6629 293.075C-50.3789 312.66 -155.543 363.547 -262.389 428.389C-366.052 491.297 -479.012 587.177 -610.463 648.325C-755.004 715.561 -901.757 710.929 -1027.84 779.647"
                stroke="#d3d5f9" stroke-width="1.29401" stroke-miterlimit="10" />
            <path
                d="M2310.31 283.87C2281.77 374.334 2205.15 449.03 2102.55 475.725C2035.31 493.227 1964.08 482.862 1893.68 500.227C1815.04 519.631 1731.62 527.531 1644.79 534.104C1475.63 546.915 1299.73 531.497 1134.35 489.138C1004.09 455.778 881.208 413.587 759.558 377.776C673.157 352.342 583.561 339.227 488.361 313.108C345.923 274.022 200.619 264.291 69.9763 288.826C-59.379 313.114 -165.837 370.044 -271.783 440.975C-373.24 508.904 -482.376 608.154 -613.33 667.523C-758.012 733.116 -907.095 721.379 -1036.36 785.795"
                stroke="#d3d5f9" stroke-width="1.29401" stroke-miterlimit="10" />
            <path
                d="M2324.11 266.297C2293.39 362.183 2213.59 441.635 2107.53 471.733C2038.16 491.415 1965.27 482.305 1893.26 501.981C1813.03 523.901 1728.01 534.35 1639.87 542.101C1466.9 557.299 1287.24 541.525 1118.65 496.067C989.095 461.135 867.206 415.535 746.476 375.013C662.786 346.92 575.984 329.257 483.521 302.755C341.297 261.988 193.994 255.363 62.2898 284.601C-68.3659 313.606 -176.234 376.527 -281.171 453.591C-380.506 526.534 -485.734 629.155 -616.189 686.758C-761.021 750.701 -912.42 731.867 -1044.87 791.987"
                stroke="#d3d5f9" stroke-width="1.29401" stroke-miterlimit="10" />
            <path
                d="M2337.91 248.725C2305 350.032 2222.01 434.24 2112.51 467.735C2041.02 489.604 1966.46 481.736 1892.84 503.728C1811.03 528.165 1724.41 541.176 1634.95 550.086C1458.17 567.69 1274.71 551.606 1102.95 502.99C974.071 466.512 853.108 417.592 733.38 372.244C652.33 341.544 568.414 319.254 478.668 292.397C336.677 249.896 187.368 246.428 54.5838 280.363C-77.3659 314.091 -186.735 382.984 -290.586 466.195C-387.882 544.152 -489.118 650.145 -619.075 705.974C-764.056 768.261 -917.771 742.342 -1053.41 798.159"
                stroke="#d3d5f9" stroke-width="1.29401" stroke-miterlimit="10" />
            <path
                d="M2351.71 231.15C2316.61 337.88 2230.41 426.849 2117.49 463.741C2043.85 487.803 1967.64 481.165 1892.42 505.473C1809.01 532.427 1720.81 548.007 1630.04 558.068C1449.46 578.093 1262.16 561.743 1087.26 509.905C959.042 471.9 838.919 419.739 720.298 369.46C641.823 336.198 560.863 309.218 473.829 282.018C332.103 237.724 180.762 237.472 46.8973 276.111C-86.3334 314.562 -197.307 389.414 -299.98 478.784C-395.323 561.769 -492.489 671.106 -621.942 725.176C-767.071 785.793 -923.108 752.796 -1061.92 804.311"
                stroke="#d3d5f9" stroke-width="1.29401" stroke-miterlimit="10" />
            <path
                d="M2365.52 213.578C2328.24 325.736 2238.81 419.454 2122.48 459.743C2046.69 485.992 1968.83 480.596 1892.01 507.22C1806.99 536.691 1717.22 554.84 1625.13 566.059C1440.76 588.516 1249.56 571.959 1071.56 516.828C943.974 477.316 824.608 421.997 707.21 366.691C631.239 330.899 553.32 299.17 468.99 271.66C327.549 225.515 174.17 228.55 39.2119 271.873C-95.2935 315.054 -207.956 395.865 -309.367 491.382C-402.827 579.413 -495.95 691.83 -624.801 744.392C-770.195 803.069 -928.432 763.265 -1070.44 810.483"
                stroke="#d3d5f9" stroke-width="1.29401" stroke-miterlimit="10" />
            <path
                d="M2379.32 196.004C2339.86 313.584 2247.19 412.064 2127.46 455.75C2049.5 484.198 1969.99 480.025 1891.59 508.972C1804.95 540.953 1713.63 561.683 1620.21 574.048C1432.06 598.951 1236.92 582.232 1055.87 523.75C928.885 482.736 810.16 424.338 694.12 363.92C620.563 325.624 545.795 289.101 464.143 261.293C323.026 213.234 167.661 219.865 31.5185 267.634C-104.171 315.796 -218.697 402.327 -318.769 503.984C-410.417 597.081 -499.295 712.862 -627.674 763.606C-773.185 820.685 -933.777 773.732 -1078.96 816.654"
                stroke="#d3d5f9" stroke-width="1.29401" stroke-miterlimit="10" />
            <path
                d="M2393.12 178.432C2351.47 301.433 2255.56 404.682 2132.45 451.751C2052.3 482.393 1971.1 479.32 1891.17 510.713C1802.86 545.062 1710.07 568.691 1615.3 582.032C1423.42 609.737 1224.25 592.559 1040.17 530.666C913.777 488.171 795.583 426.745 681.038 361.145C609.816 320.352 538.296 279.008 459.303 250.928C318.541 200.889 161.042 210.814 23.8317 263.39C-113.152 316.166 -229.496 408.803 -328.164 516.581C-418.065 614.783 -502.634 733.896 -630.547 782.823C-776.174 838.297 -939.115 784.207 -1087.48 822.827"
                stroke="#d3d5f9" stroke-width="1.29401" stroke-miterlimit="10" />
            <path
                d="M2406.92 160.861C2363.08 289.285 2263.91 397.302 2137.43 447.762C2055.1 480.604 1972.31 478.889 1890.75 512.468C1800.86 549.477 1706.46 575.383 1610.39 590.025C1414.69 619.858 1211.54 602.952 1024.47 537.598C898.638 493.634 780.858 429.232 667.949 358.378C598.966 315.094 530.811 268.904 454.458 240.572C314.097 188.475 154.423 201.771 16.1393 259.16C-122.145 316.55 -240.358 415.315 -337.558 529.193C-425.77 632.533 -505.972 754.939 -633.413 802.047C-779.163 855.923 -944.446 794.684 -1096 829.001"
                stroke="#d3d5f9" stroke-width="1.29401" stroke-miterlimit="10" />


  



        </g>
    </g>
    <defs>
        <clipPath id="clip0_168_5178">
            <rect width="1440" height="825" fill="white" />
        </clipPath>
    </defs>
    <script xmlns="" />
</svg>